<svg width="1200" height="800" xmlns="http://www.w3.org/2000/svg">
  <!-- Background gradient -->
  <defs>
    <linearGradient id="bg-gradient" x1="0%" y1="0%" x2="100%" y2="100%">
      <stop offset="0%" style="stop-color:#0D1117;stop-opacity:1" />
      <stop offset="100%" style="stop-color:#27325C;stop-opacity:1" />
    </linearGradient>
    
    <!-- Grid pattern -->
    <pattern id="grid" width="40" height="40" patternUnits="userSpaceOnUse">
      <path d="M 40 0 L 0 0 0 40" fill="none" stroke="#3663EA" stroke-width="0.5" stroke-opacity="0.1"/>
    </pattern>
    
    <!-- Glow filter -->
    <filter id="glow" x="-50%" y="-50%" width="200%" height="200%">
      <feGaussianBlur in="SourceGraphic" stdDeviation="10" result="blur" />
      <feComposite in="blur" operator="over" in2="SourceGraphic" />
    </filter>
  </defs>
  
  <!-- Base layer -->
  <rect width="100%" height="100%" fill="url(#bg-gradient)" />
  
  <!-- Grid overlay -->
  <rect width="100%" height="100%" fill="url(#grid)" />
  
  <!-- Abstract shapes -->
  <circle cx="200" cy="200" r="100" fill="#3663EA" opacity="0.1" filter="url(#glow)" />
  <circle cx="1000" cy="600" r="150" fill="#FF6B35" opacity="0.1" filter="url(#glow)" />
  
  <!-- Dots pattern -->
  <g opacity="0.2">
    <circle cx="100" cy="100" r="2" fill="#fff" />
    <circle cx="300" cy="200" r="2" fill="#fff" />
    <circle cx="500" cy="300" r="2" fill="#fff" />
    <circle cx="700" cy="100" r="2" fill="#fff" />
    <circle cx="900" cy="200" r="2" fill="#fff" />
    <circle cx="1100" cy="300" r="2" fill="#fff" />
    <circle cx="100" cy="500" r="2" fill="#fff" />
    <circle cx="300" cy="600" r="2" fill="#fff" />
    <circle cx="500" cy="700" r="2" fill="#fff" />
    <circle cx="700" cy="500" r="2" fill="#fff" />
    <circle cx="900" cy="600" r="2" fill="#fff" />
    <circle cx="1100" cy="700" r="2" fill="#fff" />
  </g>
</svg> 